<svg width="1078" height="256" viewBox="0 0 1078 256" fill="none" xmlns="http://www.w3.org/2000/svg">
<path d="M127.06 255.997C58.85 255.527 -0.456998 198.918 0.00300154 126.998C0.445002 57.796 57.952 -0.469 129.11 0.00300038C198.267 0.463 256.613 57.867 255.995 128.194C256.568 197.884 197.935 256.489 127.06 255.997V255.997ZM127.06 255.997C58.85 255.527 -0.456998 198.918 0.00300154 126.998C0.445002 57.796 57.952 -0.469 129.11 0.00300038C198.267 0.463 256.613 57.867 255.995 128.194C256.568 197.884 197.935 256.489 127.06 255.997V255.997Z" fill="white"/>
<path d="M127.185 238.997C68.032 238.59 16.604 189.5 17.002 127.131C17.386 67.119 67.255 16.591 128.963 17.002C188.935 17.401 239.532 67.182 238.996 128.169C239.492 188.602 188.647 239.424 127.185 238.997ZM127.185 238.997C68.032 238.59 16.604 189.5 17.002 127.131C17.386 67.119 67.255 16.591 128.963 17.002C188.935 17.401 239.532 67.182 238.996 128.169C239.492 188.602 188.647 239.424 127.185 238.997Z" fill="#49A32B"/>
<path d="M88.201 179.22C90.103 179.276 92.007 179.235 94.201 179.235V193.021C80.566 195.326 69.335 191.455 66.579 179.93C65.6357 175.692 65.0549 171.381 64.843 167.044C64.55 162.452 65.056 157.809 64.706 153.225C63.736 140.613 62.103 136.307 50 135.711V120.015C50.8677 119.813 51.7465 119.662 52.632 119.563C59.268 119.236 62.065 117.201 63.549 110.665C64.2249 106.993 64.624 103.275 64.743 99.543C65.269 92.326 65.083 84.992 66.285 77.892C68.022 67.625 74.396 62.637 84.925 62.078C87.921 61.918 90.926 62.054 94.321 62.054V76.144C92.924 76.244 91.644 76.447 90.371 76.409C81.791 76.146 81.348 79.069 80.721 86.171C80.331 90.625 80.87 95.155 80.566 99.625C80.2486 104.073 79.6538 108.496 78.785 112.87C77.547 119.209 73.65 123.923 68.25 127.923C78.733 134.746 79.926 145.346 80.607 156.111C80.973 161.895 80.806 167.721 81.393 173.477C81.85 177.944 83.588 179.084 88.201 179.22ZM193.673 111.923C195.132 117.37 197.971 119.285 203.705 119.546C204.645 119.59 205.58 119.749 206.868 119.892V135.584C206.171 135.814 205.456 135.984 204.73 136.096C197.046 136.574 193.544 139.726 192.768 147.431C192.272 152.35 192.313 157.323 191.972 162.259C191.829 167.679 191.336 173.083 190.496 178.439C188.536 188.142 182.477 192.983 172.467 193.574C169.246 193.764 166.001 193.604 162.527 193.604V179.578C164.397 179.463 166.047 179.303 167.701 179.264C173.682 179.121 175.797 177.193 176.09 171.253C176.414 164.728 176.555 158.194 176.847 151.667C177.27 142.234 179.853 133.806 188.642 127.922C183.612 124.337 179.575 119.994 178.53 114.139C177.265 107.042 176.856 99.788 176.175 92.591C175.839 88.994 175.855 85.365 175.504 81.77C175.125 77.89 172.459 76.546 168.927 76.46C166.903 76.41 164.872 76.45 162.285 76.45V62.754C178.794 60.013 190.198 65.506 191.258 81.302C191.701 87.934 191.636 94.599 192.061 101.232C192.247 104.84 192.787 108.422 193.673 111.923Z" fill="white"/>
<path d="M140.273 95.4555C140.277 97.3092 139.548 99.0893 138.245 100.407C136.941 101.725 135.17 102.474 133.316 102.491L125.1 102.536C123.246 102.542 121.465 101.813 120.146 100.509C118.828 99.2052 118.079 97.4323 118.064 95.578L117.955 76.9773C117.956 76.9412 117.947 76.9056 117.93 76.8735C117.914 76.8415 117.889 76.8141 117.86 76.7937C117.83 76.7734 117.795 76.7607 117.76 76.7569C117.724 76.7531 117.687 76.7582 117.654 76.7718C109.099 80.2489 102.679 89.3774 102.699 99.2246C102.716 108.645 109.545 115.934 117.461 120.318C118.586 120.941 119.517 121.863 120.152 122.982C120.786 124.101 121.099 125.373 121.056 126.658L119.097 175.952C119.019 177.386 119.235 178.821 119.732 180.169C120.229 181.516 120.996 182.748 121.987 183.788C122.977 184.828 124.17 185.655 125.492 186.217C126.813 186.779 128.236 187.065 129.673 187.057C131.109 187.049 132.528 186.747 133.844 186.17C135.159 185.594 136.343 184.754 137.322 183.703C138.3 182.651 139.054 181.411 139.536 180.058C140.018 178.705 140.218 177.268 140.123 175.834L137.815 126.239C137.761 124.973 138.053 123.716 138.658 122.603C139.264 121.491 140.161 120.564 141.254 119.922C148.979 115.403 155.588 108.101 155.597 98.8286C155.617 88.8576 147.901 79.072 140.447 76.544C140.414 76.5333 140.379 76.5305 140.345 76.536C140.311 76.5414 140.278 76.5548 140.251 76.5752C140.223 76.5956 140.2 76.6223 140.184 76.6532C140.169 76.6841 140.161 76.7182 140.161 76.7528L140.273 95.4555Z" stroke="white" stroke-width="8" stroke-miterlimit="10" stroke-linecap="round"/>
<path d="M132.101 178.971C133.46 177.598 133.447 175.383 132.074 174.024C130.7 172.665 128.485 172.678 127.126 174.052C125.768 175.425 125.78 177.64 127.154 178.999C128.528 180.358 130.743 180.345 132.101 178.971Z" fill="white"/>
<path d="M311.943 107.261C311.67 104.511 310.5 102.375 308.432 100.852C306.364 99.3295 303.557 98.5682 300.011 98.5682C297.602 98.5682 295.568 98.9091 293.909 99.5909C292.25 100.25 290.977 101.17 290.091 102.352C289.227 103.534 288.795 104.875 288.795 106.375C288.75 107.625 289.011 108.716 289.58 109.648C290.17 110.58 290.977 111.386 292 112.068C293.023 112.727 294.205 113.307 295.545 113.807C296.886 114.284 298.318 114.693 299.841 115.034L306.114 116.534C309.159 117.216 311.955 118.125 314.5 119.261C317.045 120.398 319.25 121.795 321.114 123.455C322.977 125.114 324.42 127.068 325.443 129.318C326.489 131.568 327.023 134.148 327.045 137.057C327.023 141.33 325.932 145.034 323.773 148.17C321.636 151.284 318.545 153.705 314.5 155.432C310.477 157.136 305.625 157.989 299.943 157.989C294.307 157.989 289.398 157.125 285.216 155.398C281.057 153.67 277.807 151.114 275.466 147.727C273.148 144.318 271.932 140.102 271.818 135.08H286.102C286.261 137.42 286.932 139.375 288.114 140.943C289.318 142.489 290.92 143.659 292.92 144.455C294.943 145.227 297.227 145.614 299.773 145.614C302.273 145.614 304.443 145.25 306.284 144.523C308.148 143.795 309.591 142.784 310.614 141.489C311.636 140.193 312.148 138.705 312.148 137.023C312.148 135.455 311.682 134.136 310.75 133.068C309.841 132 308.5 131.091 306.727 130.341C304.977 129.591 302.83 128.909 300.284 128.295L292.682 126.386C286.795 124.955 282.148 122.716 278.739 119.67C275.33 116.625 273.636 112.523 273.659 107.364C273.636 103.136 274.761 99.4432 277.034 96.2841C279.33 93.125 282.477 90.6591 286.477 88.8864C290.477 87.1136 295.023 86.2273 300.114 86.2273C305.295 86.2273 309.818 87.1136 313.682 88.8864C317.568 90.6591 320.591 93.125 322.75 96.2841C324.909 99.4432 326.023 103.102 326.091 107.261H311.943ZM347.031 157L332.781 104.636H347.474L355.588 139.818H356.065L364.52 104.636H378.94L387.531 139.614H387.974L395.952 104.636H410.611L396.395 157H381.02L372.02 124.068H371.372L362.372 157H347.031ZM433.29 157.989C429.949 157.989 426.972 157.409 424.358 156.25C421.744 155.068 419.676 153.33 418.153 151.034C416.653 148.716 415.903 145.83 415.903 142.375C415.903 139.466 416.438 137.023 417.506 135.045C418.574 133.068 420.028 131.477 421.869 130.273C423.71 129.068 425.801 128.159 428.142 127.545C430.506 126.932 432.983 126.5 435.574 126.25C438.619 125.932 441.074 125.636 442.938 125.364C444.801 125.068 446.153 124.636 446.994 124.068C447.835 123.5 448.256 122.659 448.256 121.545V121.341C448.256 119.182 447.574 117.511 446.21 116.33C444.869 115.148 442.96 114.557 440.483 114.557C437.869 114.557 435.79 115.136 434.244 116.295C432.699 117.432 431.676 118.864 431.176 120.591L417.744 119.5C418.426 116.318 419.767 113.568 421.767 111.25C423.767 108.909 426.347 107.114 429.506 105.864C432.688 104.591 436.369 103.955 440.551 103.955C443.46 103.955 446.244 104.295 448.903 104.977C451.585 105.659 453.96 106.716 456.028 108.148C458.119 109.58 459.767 111.42 460.972 113.67C462.176 115.898 462.778 118.568 462.778 121.682V157H449.006V149.739H448.597C447.756 151.375 446.631 152.818 445.222 154.068C443.812 155.295 442.119 156.261 440.142 156.966C438.165 157.648 435.881 157.989 433.29 157.989ZM437.449 147.966C439.585 147.966 441.472 147.545 443.108 146.705C444.744 145.841 446.028 144.682 446.96 143.227C447.892 141.773 448.358 140.125 448.358 138.284V132.727C447.903 133.023 447.278 133.295 446.483 133.545C445.71 133.773 444.835 133.989 443.858 134.193C442.881 134.375 441.903 134.545 440.926 134.705C439.949 134.841 439.062 134.966 438.267 135.08C436.563 135.33 435.074 135.727 433.801 136.273C432.528 136.818 431.54 137.557 430.835 138.489C430.131 139.398 429.778 140.534 429.778 141.898C429.778 143.875 430.494 145.386 431.926 146.432C433.381 147.455 435.222 147.966 437.449 147.966ZM497.636 177.727C492.932 177.727 488.898 177.08 485.534 175.784C482.193 174.511 479.534 172.773 477.557 170.568C475.58 168.364 474.295 165.886 473.705 163.136L487.136 161.33C487.545 162.375 488.193 163.352 489.08 164.261C489.966 165.17 491.136 165.898 492.591 166.443C494.068 167.011 495.864 167.295 497.977 167.295C501.136 167.295 503.739 166.523 505.784 164.977C507.852 163.455 508.886 160.898 508.886 157.307V147.727H508.273C507.636 149.182 506.682 150.557 505.409 151.852C504.136 153.148 502.5 154.205 500.5 155.023C498.5 155.841 496.114 156.25 493.341 156.25C489.409 156.25 485.83 155.341 482.602 153.523C479.398 151.682 476.841 148.875 474.932 145.102C473.045 141.307 472.102 136.511 472.102 130.716C472.102 124.784 473.068 119.83 475 115.852C476.932 111.875 479.5 108.898 482.705 106.92C485.932 104.943 489.466 103.955 493.307 103.955C496.239 103.955 498.693 104.455 500.67 105.455C502.648 106.432 504.239 107.659 505.443 109.136C506.67 110.591 507.614 112.023 508.273 113.432H508.818V104.636H523.239V157.511C523.239 161.966 522.148 165.693 519.966 168.693C517.784 171.693 514.761 173.943 510.898 175.443C507.057 176.966 502.636 177.727 497.636 177.727ZM497.943 145.341C500.284 145.341 502.261 144.761 503.875 143.602C505.511 142.42 506.761 140.739 507.625 138.557C508.511 136.352 508.955 133.716 508.955 130.648C508.955 127.58 508.523 124.92 507.659 122.67C506.795 120.398 505.545 118.636 503.909 117.386C502.273 116.136 500.284 115.511 497.943 115.511C495.557 115.511 493.545 116.159 491.909 117.455C490.273 118.727 489.034 120.5 488.193 122.773C487.352 125.045 486.932 127.67 486.932 130.648C486.932 133.67 487.352 136.284 488.193 138.489C489.057 140.67 490.295 142.364 491.909 143.568C493.545 144.75 495.557 145.341 497.943 145.341ZM558.386 177.727C553.682 177.727 549.648 177.08 546.284 175.784C542.943 174.511 540.284 172.773 538.307 170.568C536.33 168.364 535.045 165.886 534.455 163.136L547.886 161.33C548.295 162.375 548.943 163.352 549.83 164.261C550.716 165.17 551.886 165.898 553.341 166.443C554.818 167.011 556.614 167.295 558.727 167.295C561.886 167.295 564.489 166.523 566.534 164.977C568.602 163.455 569.636 160.898 569.636 157.307V147.727H569.023C568.386 149.182 567.432 150.557 566.159 151.852C564.886 153.148 563.25 154.205 561.25 155.023C559.25 155.841 556.864 156.25 554.091 156.25C550.159 156.25 546.58 155.341 543.352 153.523C540.148 151.682 537.591 148.875 535.682 145.102C533.795 141.307 532.852 136.511 532.852 130.716C532.852 124.784 533.818 119.83 535.75 115.852C537.682 111.875 540.25 108.898 543.455 106.92C546.682 104.943 550.216 103.955 554.057 103.955C556.989 103.955 559.443 104.455 561.42 105.455C563.398 106.432 564.989 107.659 566.193 109.136C567.42 110.591 568.364 112.023 569.023 113.432H569.568V104.636H583.989V157.511C583.989 161.966 582.898 165.693 580.716 168.693C578.534 171.693 575.511 173.943 571.648 175.443C567.807 176.966 563.386 177.727 558.386 177.727ZM558.693 145.341C561.034 145.341 563.011 144.761 564.625 143.602C566.261 142.42 567.511 140.739 568.375 138.557C569.261 136.352 569.705 133.716 569.705 130.648C569.705 127.58 569.273 124.92 568.409 122.67C567.545 120.398 566.295 118.636 564.659 117.386C563.023 116.136 561.034 115.511 558.693 115.511C556.307 115.511 554.295 116.159 552.659 117.455C551.023 118.727 549.784 120.5 548.943 122.773C548.102 125.045 547.682 127.67 547.682 130.648C547.682 133.67 548.102 136.284 548.943 138.489C549.807 140.67 551.045 142.364 552.659 143.568C554.295 144.75 556.307 145.341 558.693 145.341ZM619.409 158.023C614.023 158.023 609.386 156.932 605.5 154.75C601.636 152.545 598.659 149.432 596.568 145.409C594.477 141.364 593.432 136.58 593.432 131.057C593.432 125.67 594.477 120.943 596.568 116.875C598.659 112.807 601.602 109.636 605.398 107.364C609.216 105.091 613.693 103.955 618.83 103.955C622.284 103.955 625.5 104.511 628.477 105.625C631.477 106.716 634.091 108.364 636.318 110.568C638.568 112.773 640.318 115.545 641.568 118.886C642.818 122.205 643.443 126.091 643.443 130.545V134.534H599.227V125.534H629.773C629.773 123.443 629.318 121.591 628.409 119.977C627.5 118.364 626.239 117.102 624.625 116.193C623.034 115.261 621.182 114.795 619.068 114.795C616.864 114.795 614.909 115.307 613.205 116.33C611.523 117.33 610.205 118.682 609.25 120.386C608.295 122.068 607.807 123.943 607.784 126.011V134.568C607.784 137.159 608.261 139.398 609.216 141.284C610.193 143.17 611.568 144.625 613.341 145.648C615.114 146.67 617.216 147.182 619.648 147.182C621.261 147.182 622.739 146.955 624.08 146.5C625.42 146.045 626.568 145.364 627.523 144.455C628.477 143.545 629.205 142.432 629.705 141.114L643.136 142C642.455 145.227 641.057 148.045 638.943 150.455C636.852 152.841 634.148 154.705 630.83 156.045C627.534 157.364 623.727 158.023 619.409 158.023ZM652.92 157V104.636H667V113.773H667.545C668.5 110.523 670.102 108.068 672.352 106.409C674.602 104.727 677.193 103.886 680.125 103.886C680.852 103.886 681.636 103.932 682.477 104.023C683.318 104.114 684.057 104.239 684.693 104.398V117.284C684.011 117.08 683.068 116.898 681.864 116.739C680.659 116.58 679.557 116.5 678.557 116.5C676.42 116.5 674.511 116.966 672.83 117.898C671.17 118.807 669.852 120.08 668.875 121.716C667.92 123.352 667.443 125.239 667.443 127.375V157H652.92ZM714.693 157V87.1818H742.648C747.784 87.1818 752.068 87.9432 755.5 89.4659C758.932 90.9886 761.511 93.1023 763.239 95.8068C764.966 98.4886 765.83 101.58 765.83 105.08C765.83 107.807 765.284 110.205 764.193 112.273C763.102 114.318 761.602 116 759.693 117.318C757.807 118.614 755.648 119.534 753.216 120.08V120.761C755.875 120.875 758.364 121.625 760.682 123.011C763.023 124.398 764.92 126.341 766.375 128.841C767.83 131.318 768.557 134.273 768.557 137.705C768.557 141.409 767.636 144.716 765.795 147.625C763.977 150.511 761.284 152.795 757.716 154.477C754.148 156.159 749.75 157 744.523 157H714.693ZM729.455 144.932H741.489C745.602 144.932 748.602 144.148 750.489 142.58C752.375 140.989 753.318 138.875 753.318 136.239C753.318 134.307 752.852 132.602 751.92 131.125C750.989 129.648 749.659 128.489 747.932 127.648C746.227 126.807 744.193 126.386 741.83 126.386H729.455V144.932ZM729.455 116.398H740.398C742.42 116.398 744.216 116.045 745.784 115.341C747.375 114.614 748.625 113.591 749.534 112.273C750.466 110.955 750.932 109.375 750.932 107.534C750.932 105.011 750.034 102.977 748.239 101.432C746.466 99.8864 743.943 99.1136 740.67 99.1136H729.455V116.398ZM811.469 134.705V104.636H825.991V157H812.048V147.489H811.503C810.321 150.557 808.355 153.023 805.605 154.886C802.878 156.75 799.548 157.682 795.616 157.682C792.116 157.682 789.037 156.886 786.378 155.295C783.719 153.705 781.639 151.443 780.139 148.511C778.662 145.58 777.912 142.068 777.889 137.977V104.636H792.412V135.386C792.435 138.477 793.264 140.92 794.901 142.716C796.537 144.511 798.73 145.409 801.48 145.409C803.23 145.409 804.866 145.011 806.389 144.216C807.912 143.398 809.139 142.193 810.071 140.602C811.026 139.011 811.491 137.045 811.469 134.705ZM837.608 157V104.636H852.131V157H837.608ZM844.903 97.8864C842.744 97.8864 840.892 97.1705 839.347 95.7386C837.824 94.2841 837.062 92.5455 837.062 90.5227C837.062 88.5227 837.824 86.8068 839.347 85.375C840.892 83.9205 842.744 83.1932 844.903 83.1932C847.063 83.1932 848.903 83.9205 850.426 85.375C851.972 86.8068 852.744 88.5227 852.744 90.5227C852.744 92.5455 851.972 94.2841 850.426 95.7386C848.903 97.1705 847.063 97.8864 844.903 97.8864ZM878.287 87.1818V157H863.764V87.1818H878.287ZM909.216 157.852C905.239 157.852 901.636 156.83 898.409 154.784C895.205 152.716 892.659 149.682 890.773 145.682C888.909 141.659 887.977 136.727 887.977 130.886C887.977 124.886 888.943 119.898 890.875 115.92C892.807 111.92 895.375 108.932 898.58 106.955C901.807 104.955 905.341 103.955 909.182 103.955C912.114 103.955 914.557 104.455 916.511 105.455C918.489 106.432 920.08 107.659 921.284 109.136C922.511 110.591 923.443 112.023 924.08 113.432H924.523V87.1818H939.011V157H924.693V148.614H924.08C923.398 150.068 922.432 151.511 921.182 152.943C919.955 154.352 918.352 155.523 916.375 156.455C914.42 157.386 912.034 157.852 909.216 157.852ZM913.818 146.295C916.159 146.295 918.136 145.659 919.75 144.386C921.386 143.091 922.636 141.284 923.5 138.966C924.386 136.648 924.83 133.932 924.83 130.818C924.83 127.705 924.398 125 923.534 122.705C922.67 120.409 921.42 118.636 919.784 117.386C918.148 116.136 916.159 115.511 913.818 115.511C911.432 115.511 909.42 116.159 907.784 117.455C906.148 118.75 904.909 120.545 904.068 122.841C903.227 125.136 902.807 127.795 902.807 130.818C902.807 133.864 903.227 136.557 904.068 138.898C904.932 141.216 906.17 143.034 907.784 144.352C909.42 145.648 911.432 146.295 913.818 146.295ZM974.815 158.023C969.429 158.023 964.793 156.932 960.906 154.75C957.043 152.545 954.065 149.432 951.974 145.409C949.884 141.364 948.838 136.58 948.838 131.057C948.838 125.67 949.884 120.943 951.974 116.875C954.065 112.807 957.009 109.636 960.804 107.364C964.622 105.091 969.099 103.955 974.236 103.955C977.69 103.955 980.906 104.511 983.884 105.625C986.884 106.716 989.497 108.364 991.724 110.568C993.974 112.773 995.724 115.545 996.974 118.886C998.224 122.205 998.849 126.091 998.849 130.545V134.534H954.634V125.534H985.179C985.179 123.443 984.724 121.591 983.815 119.977C982.906 118.364 981.645 117.102 980.031 116.193C978.44 115.261 976.588 114.795 974.474 114.795C972.27 114.795 970.315 115.307 968.611 116.33C966.929 117.33 965.611 118.682 964.656 120.386C963.702 122.068 963.213 123.943 963.19 126.011V134.568C963.19 137.159 963.668 139.398 964.622 141.284C965.599 143.17 966.974 144.625 968.747 145.648C970.52 146.67 972.622 147.182 975.054 147.182C976.668 147.182 978.145 146.955 979.486 146.5C980.827 146.045 981.974 145.364 982.929 144.455C983.884 143.545 984.611 142.432 985.111 141.114L998.543 142C997.861 145.227 996.463 148.045 994.349 150.455C992.259 152.841 989.554 154.705 986.236 156.045C982.94 157.364 979.134 158.023 974.815 158.023ZM1008.33 157V104.636H1022.41V113.773H1022.95C1023.91 110.523 1025.51 108.068 1027.76 106.409C1030.01 104.727 1032.6 103.886 1035.53 103.886C1036.26 103.886 1037.04 103.932 1037.88 104.023C1038.72 104.114 1039.46 104.239 1040.1 104.398V117.284C1039.42 117.08 1038.47 116.898 1037.27 116.739C1036.07 116.58 1034.96 116.5 1033.96 116.5C1031.83 116.5 1029.92 116.966 1028.24 117.898C1026.58 118.807 1025.26 120.08 1024.28 121.716C1023.33 123.352 1022.85 125.239 1022.85 127.375V157H1008.33Z" fill="white"/>
</svg>
